<?xml version="1.0" encoding="UTF-8" standalone="no"?>
<!-- Created with Inkscape (http://www.inkscape.org/) -->

<svg
   xmlns:dc="http://purl.org/dc/elements/1.1/"
   xmlns:cc="http://creativecommons.org/ns#"
   xmlns:rdf="http://www.w3.org/1999/02/22-rdf-syntax-ns#"
   xmlns:svg="http://www.w3.org/2000/svg"
   xmlns="http://www.w3.org/2000/svg"
   xmlns:sodipodi="http://sodipodi.sourceforge.net/DTD/sodipodi-0.dtd"
   xmlns:inkscape="http://www.inkscape.org/namespaces/inkscape"
   width="450"
   height="170"
   id="svg2"
   version="1.1"
   inkscape:version="0.92.2 2405546, 2018-03-11"
   sodipodi:docname="logo.svg">
  <defs
     id="defs4" />
  <sodipodi:namedview
     id="base"
     pagecolor="#ffffff"
     bordercolor="#666666"
     borderopacity="1.0"
     inkscape:pageopacity="0.0"
     inkscape:pageshadow="2"
     inkscape:zoom="2.0043103"
     inkscape:cx="220.97397"
     inkscape:cy="38.881117"
     inkscape:document-units="px"
     inkscape:current-layer="layer1"
     showgrid="false"
     inkscape:window-width="1716"
     inkscape:window-height="957"
     inkscape:window-x="37"
     inkscape:window-y="33"
     inkscape:window-maximized="0"
     fit-margin-top="0"
     fit-margin-left="0"
     fit-margin-right="0"
     fit-margin-bottom="0"
     inkscape:snap-text-baseline="true"
     inkscape:snap-global="false" />
  <metadata
     id="metadata7">
    <rdf:RDF>
      <cc:Work
         rdf:about="">
        <dc:format>image/svg+xml</dc:format>
        <dc:type
           rdf:resource="http://purl.org/dc/dcmitype/StillImage" />
        <dc:title></dc:title>
      </cc:Work>
    </rdf:RDF>
  </metadata>
  <g
     inkscape:label="Layer 1"
     inkscape:groupmode="layer"
     id="layer1"
     transform="translate(-49.107723,-470.70853)">
    <rect
       style="opacity:1;fill:#ffffff;fill-opacity:1;fill-rule:evenodd;stroke:none;stroke-width:0.76040268;stroke-linecap:round;stroke-miterlimit:4;stroke-dasharray:none;stroke-opacity:1"
       id="rect820"
       width="450"
       height="170"
       x="49.107723"
       y="470.70853"
       inkscape:export-filename="/home/fender/workspace/AlleyCat/logo.png"
       inkscape:export-xdpi="85.330002"
       inkscape:export-ydpi="85.330002" />
    <path
       style="fill:#000000;fill-opacity:1;stroke:none;stroke-width:0.48830372"
       d="m 387.74905,473.17788 c 4.55133,2.29383 7.62666,7.46771 9.94918,11.91766 0.40373,-2.4392 1.48503,-3.85545 1.93495,-6.21296 0.68158,-3.57153 2.18628,2.70929 2.84124,5.31267 0.516,6.9055 4.71834,12.71432 4.9899,19.63897 0.96122,5.27311 4.89806,8.82254 7.59921,13.15366 2.49477,4.68185 6.3304,8.41559 9.93393,12.20759 3.57073,2.25766 4.08744,3.13117 7.75808,4.82608 6.66856,4.05694 9.25848,5.49759 14.32546,11.39968 3.86883,6.22651 7.41328,12.69013 9.81334,19.61765 2.64372,6.74583 4.77248,14.26648 3.01992,21.47616 -1.40846,2.09815 -1.47898,6.2683 1.75481,6.59208 5.49952,-0.41436 11.18919,-4.1458 13.27576,-8.81996 2.09331,-4.68927 1.08614,-10.23403 -1.29302,-14.90268 -3.6405,-7.39477 -6.1833,-15.36403 -10.94675,-22.18388 -5.51485,-8.44678 -6.68483,-18.84785 -6.98719,-28.6666 0.52727,-7.39766 5.78255,-15.87762 13.83843,-16.17686 6.9824,1.21306 2.69461,7.11644 -0.99497,10.32614 -7.05735,6.13948 -4.29741,19.46543 -2.16938,25.42812 1.86619,5.22903 5.67067,11.17401 8.95168,16.60471 4.06908,6.7351 6.85002,14.33405 8.51275,22.01757 1.08872,6.30517 -1.63231,11.96732 -5.84437,16.51074 -3.35669,4.48221 -8.68868,7.30369 -13.70302,9.53717 -4.66452,1.36732 -9.51562,-2.24063 -14.03873,0.30521 -4.09907,4.07161 -10.05652,4.36479 -15.50365,4.94402 -7.94358,0.48785 -15.71683,-1.21061 -23.62171,-1.3427 -2.88655,0.85873 -6.46886,0.58381 -8.31636,-2.13641 -0.99179,-1.2279 -0.75032,-3.53101 1.08346,-3.82989 2.40772,-0.70156 -4.96342,-0.6335 -3.7538,-3.79963 -0.46671,-1.88997 1.1715,-3.17195 3.00606,-3.18916 3.87029,-1.38114 3.76818,-10.1543 2.38052,-9.76608 -4.34658,5.57877 -5.7152,12.72944 -9.1556,18.79967 -0.41169,1.76657 -0.73499,3.99243 -2.91444,4.40985 -3.02948,0.8895 -6.4042,1.09146 -9.50654,0.35089 -2.88983,-1.09236 -3.00341,-5.48945 -1.1292,-7.46172 1.74789,-0.95692 4.74182,-0.33196 5.4628,-2.79236 2.23848,-6.53103 4.02953,-13.18167 6.01215,-19.77628 -0.0298,-8.26612 0.75975,-14.39653 -2.58514,-21.68796 -3.64435,-5.66561 -4.08251,-7.66689 -4.08636,-14.66522 -1.01631,-5.78052 1.08628,-11.33411 0.91562,-17.07534 -0.20143,-3.66946 -3.61828,-6.57951 -7.26352,-6.10375 -4.24024,-0.93683 -7.81682,-4.36083 -10.02005,-7.96141 -2.12797,-3.88311 -1.82493,-8.84157 2.52771,-10.77722 1.89857,-2.87637 1.70608,-7.06632 4.85252,-9.17093 2.59436,-2.78144 6.32099,-3.78734 9.76607,-4.91356 1.66068,-2.53478 0.28742,-6.14654 0.33571,-9.01826 -0.0117,-1.07567 -0.50046,-2.06873 -1.00746,-2.94547 z m 4.42525,80.14285 c 0.41456,2.03546 0.19561,0.24135 0,0 z m 21.35112,38.71837 c -1.42209,2.6977 -0.53308,7.49624 2.06007,4.57785 -0.80889,-1.46456 -1.76016,-2.90003 -2.06007,-4.57785 z"
       id="path3091"
       inkscape:connector-curvature="0"
       sodipodi:nodetypes="ccscccccccccsccccssscccccccccccccccccccccccccccccccc"
       inkscape:export-filename="/home/fender/workspace/AlleyCat/logo.png"
       inkscape:export-xdpi="85.330002"
       inkscape:export-ydpi="85.330002" />
    <path
       style="fill:#007400;fill-opacity:1;stroke:none"
       d=""
       id="path3117"
       inkscape:connector-curvature="0"
       inkscape:export-filename="/home/fender/workspace/AlleyCat/logo.png"
       inkscape:export-xdpi="84.839996"
       inkscape:export-ydpi="84.839996" />
    <path
       style="fill:#007400;fill-opacity:1;stroke:none"
       d=""
       id="path3200"
       inkscape:connector-curvature="0"
       inkscape:export-filename="/home/fender/workspace/AlleyCat/logo.png"
       inkscape:export-xdpi="84.839996"
       inkscape:export-ydpi="84.839996" />
    <path
       style="fill:#d4fc44;fill-opacity:1;stroke:none"
       d=""
       id="path3087"
       inkscape:connector-curvature="0"
       transform="translate(0,308.2677)"
       inkscape:export-filename="/home/fender/workspace/AlleyCat/logo.png"
       inkscape:export-xdpi="84.839996"
       inkscape:export-ydpi="84.839996" />
    <text
       xml:space="preserve"
       style="font-style:normal;font-variant:normal;font-weight:normal;font-stretch:normal;font-size:93.75431824px;line-height:1.25;font-family:Magik;-inkscape-font-specification:'Magik, Normal';font-variant-ligatures:normal;font-variant-caps:normal;font-variant-numeric:normal;font-feature-settings:normal;text-align:start;letter-spacing:0px;word-spacing:0px;writing-mode:lr-tb;text-anchor:start;fill:#1c0a00;fill-opacity:1;stroke:none;stroke-width:0.48830372"
       x="51.28434"
       y="607.09735"
       id="text822"
       inkscape:export-filename="/home/fender/workspace/AlleyCat/logo.png"
       inkscape:export-xdpi="85.330002"
       inkscape:export-ydpi="85.330002"><tspan
         sodipodi:role="line"
         id="tspan820"
         x="51.28434"
         y="607.09735"
         style="stroke-width:0.48830372">Alley Cat</tspan></text>
    <text
       xml:space="preserve"
       style="font-style:normal;font-variant:normal;font-weight:bold;font-stretch:normal;font-size:18.23000526px;line-height:1.25;font-family:'Inter UI';-inkscape-font-specification:'Inter UI, Bold';font-variant-ligatures:normal;font-variant-caps:normal;font-variant-numeric:normal;font-feature-settings:normal;text-align:start;letter-spacing:0px;word-spacing:0px;writing-mode:lr-tb;text-anchor:start;fill:#000000;fill-opacity:1;stroke:none;stroke-width:0.48830372"
       x="277.99188"
       y="630.18158"
       id="text826"
       inkscape:export-filename="/home/fender/workspace/AlleyCat/logo.png"
       inkscape:export-xdpi="85.330002"
       inkscape:export-ydpi="85.330002"><tspan
         sodipodi:role="line"
         id="tspan824"
         x="277.99188"
         y="630.18158"
         style="stroke-width:0.48830372">GAME FRAMEWORK</tspan></text>
  </g>
</svg>
